Coordinates
nRows=153
nColumns=2
inDegrees=yes
endheader
time	ankle_angle_r	
2.18736	  9.628296	
2.24986	  9.674072	
2.31235	  9.552002	
2.37485	  9.582520	
2.43734	  9.567261	
2.49984	  9.475708	
2.56234	  9.658813	
2.62483	  9.613037	
2.68733	  9.613037	
2.74982	  9.552002	
2.81232	  9.460449	
2.87482	  9.536743	
2.93731	  9.552002	
2.99981	  9.414673	
3.0623	  9.567261	
3.1248	  9.521484	
3.1873	  9.536743	
3.24979	  9.567261	
3.31229	  9.414673	
3.37478	  9.506226	
3.43728	  9.460449	
3.49978	  9.475708	
3.56227	  9.689331	
3.62477	  9.613037	
3.68726	  9.628296	
3.74976	  9.613037	
3.81226	  9.429932	
3.87475	  9.521484	
3.93725	  9.475708	
3.99974	  9.506226	
4.06224	  9.628296	
4.12474	  9.582520	
4.18723	  9.552002	
4.24973	  9.613037	
4.31222	  9.445190	
4.37472	  9.567261	
4.43722	  9.490967	
4.49971	  9.490967	
4.56221	  9.582520	
4.6247	  9.552002	
4.6872	  9.643555	
4.7497	  9.582520	
4.81219	  9.567261	
4.87469	  9.552002	
4.93718	  9.521484	
4.99968	  9.552002	
5.06218	  9.628296	
5.12467	  9.567261	
5.18717	  9.613037	
5.24966	  9.628296	
5.31216	  9.536743	
5.37466	  9.506226	
5.43715	  9.460449	
5.49965	  9.521484	
5.56214	  9.567261	
5.62464	  9.521484	
5.68714	  9.582520	
5.74963	  9.536743	
5.81213	  9.506226	
5.87462	  9.506226	
5.93712	  9.475708	
5.99962	  9.567261	
6.06211	  9.613037	
6.12461	  9.597778	
6.1871	  9.552002	
6.2496	  9.460449	
6.3121	  9.460449	
6.37459	  9.582520	
6.43709	  9.475708	
6.49958	  9.582520	
6.56208	  9.567261	
6.62458	  9.521484	
6.68707	  9.552002	
6.74957	  9.475708	
6.81206	  9.536743	
6.87456	  9.552002	
6.93706	  9.490967	
6.99955	  9.658813	
7.06205	  9.552002	
7.12454	  9.613037	
7.18704	  9.658813	
7.24954	  9.536743	
7.31203	  9.567261	
7.37453	  9.582520	
7.43702	  9.552002	
7.49952	  9.704590	
7.56202	  9.643555	
7.62451	  9.628296	
7.68701	  9.704590	
7.7495	  9.552002	
7.812	  9.582520	
7.8745	  9.582520	
7.93699	  9.506226	
7.99949	  9.704590	
8.06198	  9.628296	
8.12448	  9.628296	
8.18698	  9.704590	
8.24947	  9.536743	
8.31197	  9.582520	
8.37446	  9.567261	
8.43696	  9.536743	
8.49946	  9.658813	
8.56195	  9.582520	
8.62445	  9.628296	
8.68694	  9.628296	
8.74944	  9.475708	
8.81194	  9.521484	
8.87443	  9.460449	
8.93693	  9.490967	
8.99942	  9.552002	
9.06192	  9.490967	
9.12442	  9.582520	
9.18691	  9.643555	
9.24941	  9.506226	
9.3119	  9.567261	
9.3744	  9.521484	
9.4369	  9.521484	
9.49939	  9.643555	
9.56189	  9.597778	
9.62438	  9.658813	
9.68688	  9.628296	
9.74938	  9.536743	
9.81187	  9.613037	
9.87437	  9.552002	
9.93686	  9.582520	
9.99936	  9.689331	
10.0619	  9.597778	
10.1244	  9.643555	
10.1868	  9.613037	
10.2493	  9.552002	
10.3118	  9.613037	
10.3743	  9.552002	
10.4368	  9.567261	
10.4993	  9.628296	
10.5618	  9.597778	
10.6243	  9.597778	
10.6868	  9.521484	
10.7493	  9.536743	
10.8118	  9.521484	
10.8743	  9.490967	
10.9368	  9.460449	
10.9993	  9.521484	
11.0618	  9.506226	
11.1243	  9.552002	
11.1868	  9.414673	
11.2493	  9.490967	
11.3118	  9.521484	
11.3743	  9.475708	
11.4368	  9.613037	
11.4993	  9.552002	
11.5618	  9.567261	
11.6243	  9.643555	
11.6868	  9.552002	
